<svg viewBox="0 0 150 150" xmlns="http://www.w3.org/2000/svg" data-sanitized-data-name="Layer 1" data-name="Layer 1" id="Layer_1">
  <defs>
    <style>
      .cls-1 {
        fill: none;
        fill-rule: evenodd;
        stroke: #000;
        stroke-miterlimit: 10;
      }
    </style>
  </defs>
  <path d="m75,1.21c40.75,0,73.79,33.03,73.79,73.79s-33.04,73.79-73.79,73.79S1.21,115.75,1.21,75,34.25,1.21,75,1.21h0Zm1.59,96.88c13.75,0,24.94-11.19,24.94-24.94s-11.18-24.94-24.94-24.94-24.94,11.19-24.94,24.94,11.19,24.94,24.94,24.94h0Zm0-57.81c-18.15,0-32.87,14.72-32.87,32.87s14.71,32.87,32.87,32.87,32.87-14.71,32.87-32.87-14.71-32.87-32.87-32.87h0Zm0,14.61c-10.06,0-18.25,8.19-18.25,18.25s8.19,18.25,18.25,18.25,18.25-8.18,18.25-18.25-8.19-18.25-18.25-18.25h0Zm45.96,21.01v-39.94c0-.39-.24-.73-.61-.85-.36-.12-.77,0-1,.31-4.98,6.57-7.68,14.59-7.68,22.84v14.61c0,1.67,1.36,3.03,3.03,3.03h1.26c-1.25,12.88-2.07,30.89-2.07,33,0,3.32,2.04,6.01,4.57,6.01s4.57-2.69,4.57-6.01c0-2.11-.83-20.12-2.07-33h0ZM40.13,38.65c-.85,0-1.52.71-1.48,1.55l.81,16.41c0,.93-.75,1.67-1.67,1.67s-1.67-.75-1.67-1.67l-.41-16.41c-.02-.87-.73-1.56-1.6-1.56s-1.58.69-1.6,1.56l-.41,16.41c0,.93-.75,1.67-1.67,1.67s-1.67-.75-1.67-1.67l.82-16.41c.04-.85-.63-1.55-1.48-1.55-.78,0-1.43.61-1.48,1.39l-1.25,20.47c0,3.17,1.69,5.95,4.22,7.47,1.65,1,2.56,2.86,2.35,4.77-1.43,12.86-2.4,33.86-2.4,36.15,0,3.32,2.05,6.01,4.57,6.01s4.57-2.69,4.57-6.01c0-2.29-.97-23.29-2.4-36.15-.21-1.91.71-3.77,2.35-4.77,2.53-1.53,4.22-4.3,4.22-7.47l-1.26-20.47c-.04-.78-.7-1.39-1.47-1.39h0Z" class="cls-1"></path>
</svg>